<svg width="500" height="500" viewBox="0 0 500 500" fill="none" xmlns="http://www.w3.org/2000/svg">
<path d="M495 0C497.761 2.83808e-06 500 2.23861 500 5V318.173C500 319.499 499.473 320.77 498.535 321.708L321.708 498.535C320.77 499.473 319.499 500 318.173 500H5C2.23875 500 9.82656e-05 497.761 0 495V217.836C3.45799e-05 216.51 0.527232 215.238 1.46484 214.301L214.301 1.46484C215.238 0.527235 216.51 8.19393e-05 217.836 0H495ZM411.911 43.0557C409.959 41.103 406.792 41.103 404.84 43.0557L337.883 110.013L271.034 43.1641C269.082 41.2115 265.916 41.2115 263.963 43.1641L218.164 88.9629C216.211 90.9155 216.211 94.0816 218.164 96.0342L285.013 162.883L218.056 229.841C216.103 231.793 216.103 234.959 218.056 236.911L263.311 282.166C265.263 284.119 268.428 284.119 270.381 282.166L337.338 215.208L404.84 282.71C406.792 284.663 409.959 284.663 411.911 282.71L457.71 236.911C459.662 234.959 459.662 231.793 457.71 229.841L390.208 162.338L457.166 95.3809C459.118 93.4283 459.119 90.2631 457.166 88.3105L411.911 43.0557Z" fill="#D9D9D9"/>
</svg>
