<svg width="97" height="37" viewBox="0 0 97 37" fill="none" xmlns="http://www.w3.org/2000/svg">
<g clip-path="url(#clip0_162_234)">
<path d="M5.06935 36.3139V10.8305C5.06935 8.80486 5.50804 6.99162 6.38543 5.39072C7.26281 3.75718 8.51389 2.45033 10.1387 1.4702C11.796 0.490066 13.7782 0 16.0854 0C17.8077 0 19.3188 0.29404 20.6186 0.882119C21.9184 1.43753 23.0395 2.18896 23.9819 3.13641L18.6688 8.47814C18.4089 8.1841 18.0839 7.97175 17.694 7.84105C17.3365 7.67771 16.9141 7.59602 16.4266 7.59602C15.5492 7.59602 14.8506 7.85739 14.3307 8.38012C13.8107 8.90288 13.5508 9.60529 13.5508 10.4874V36.3139H5.06935ZM0 19.4556V12.3497H20.2774V19.4556H0ZM34.7844 36.853C32.1198 36.853 29.7637 36.3303 27.7165 35.2848C25.6693 34.2066 24.0607 32.72 22.8909 30.8252C21.721 28.9303 21.1361 26.7576 21.1361 24.3073C21.1361 21.8896 21.7048 19.7497 22.8421 17.8874C23.9795 15.9925 25.523 14.5059 27.4728 13.4278C29.455 12.317 31.6811 11.7616 34.1507 11.7616C36.5555 11.7616 38.6838 12.2843 40.5361 13.3298C42.4208 14.3426 43.8831 15.7638 44.923 17.5934C45.9954 19.3903 46.5316 21.4486 46.5316 23.7682C46.5316 24.2583 46.4992 24.7648 46.4341 25.2874C46.4017 25.7775 46.3042 26.3492 46.1416 27.0027L25.1331 27.1007V21.6119L42.7783 21.4649L38.9763 23.8662C38.9439 22.5267 38.7489 21.4322 38.3914 20.5828C38.0338 19.7007 37.514 19.0309 36.8316 18.5735C36.1492 18.1161 35.2881 17.8874 34.2482 17.8874C33.1758 17.8874 32.2497 18.1488 31.4698 18.6715C30.6899 19.1943 30.0886 19.9294 29.6663 20.8768C29.2439 21.8243 29.0326 22.9678 29.0326 24.3073C29.0326 25.6795 29.26 26.8556 29.715 27.8358C30.17 28.7833 30.8198 29.502 31.6648 29.9921C32.5097 30.4821 33.5494 30.7272 34.7844 30.7272C35.9542 30.7272 36.9778 30.5311 37.8552 30.1391C38.765 29.747 39.5776 29.1425 40.2924 28.3258L44.7281 32.7854C43.5582 34.125 42.1283 35.1378 40.4386 35.8239C38.7813 36.5099 36.8967 36.853 34.7844 36.853ZM60.1657 36.853C57.9235 36.853 55.925 36.4119 54.1702 35.5298C52.4481 34.6151 51.0833 33.3571 50.0757 31.7563C49.1009 30.1227 48.6134 28.2768 48.6134 26.2186V12.3497H57.0948V26.2186C57.0948 26.8721 57.225 27.4437 57.4848 27.9338C57.7448 28.4239 58.1024 28.7995 58.5572 29.0609C59.0122 29.3224 59.5484 29.453 60.1657 29.453C61.0757 29.453 61.8069 29.159 62.3592 28.5709C62.9441 27.9828 63.2365 27.1987 63.2365 26.2186V12.3497H71.718V26.2186C71.718 28.3094 71.2305 30.1555 70.2556 31.7563C69.2808 33.3571 67.9159 34.6151 66.1612 35.5298C64.4391 36.4119 62.4406 36.853 60.1657 36.853ZM87.3552 36.853C84.8205 36.853 82.5296 36.3139 80.4823 35.2358C78.4677 34.1576 76.8753 32.671 75.7054 30.7762C74.5356 28.8813 73.9507 26.7412 73.9507 24.3563C73.9507 21.9386 74.5356 19.7823 75.7054 17.8874C76.9079 15.9925 78.5165 14.5059 80.5311 13.4278C82.5783 12.317 84.8856 11.7616 87.4527 11.7616C89.3049 11.7616 90.9949 12.072 92.522 12.6927C94.0494 13.3135 95.4466 14.2446 96.714 15.4861L91.3522 20.8768C90.8647 20.3867 90.2961 20.0274 89.6461 19.7987C89.0288 19.5373 88.2976 19.4066 87.4527 19.4066C86.5429 19.4066 85.7142 19.619 84.9667 20.0437C84.2519 20.4357 83.667 20.9912 83.212 21.7099C82.7896 22.4287 82.5783 23.2945 82.5783 24.3073C82.5783 25.2874 82.7896 26.1531 83.212 26.9046C83.667 27.6233 84.2519 28.1952 84.9667 28.6199C85.7142 29.0445 86.5429 29.257 87.4527 29.257C88.3627 29.257 89.1426 29.1099 89.7924 28.8159C90.4424 28.5219 91.011 28.0972 91.4984 27.5417L96.909 32.9325C95.5768 34.2392 94.1306 35.2194 92.5708 35.8729C91.0436 36.5264 89.3049 36.853 87.3552 36.853Z" fill="#D9D9D9"/>
</g>
<defs>
<clipPath id="clip0_162_234">
<rect width="97" height="37" fill="white"/>
</clipPath>
</defs>
</svg>
