<svg xmlns="http://www.w3.org/2000/svg" width="263" height="62" fill="none" viewBox="0 0 263 62"><g clip-path="url(#clip0_21_461)"><path fill="#D9D9D9" d="M77.8312 32.116C77.8312 45.074 85.2623 53.0875 98.0255 53.0875C109.768 53.0875 117.823 46.3812 117.823 34.0483V30.2405H98.139V37.4583H108.236C107.839 42.2892 104.095 45.4718 98.2524 45.4718C91.8424 45.4718 87.5313 41.7777 87.5313 34.7872V29.2175C87.5313 22.8522 91.2752 18.5897 97.8553 18.5897C102.564 18.5897 105.91 20.863 106.931 24.4435H116.461C115.384 16.1458 108.009 10.5762 97.9688 10.5762C85.943 10.5762 77.8312 18.5328 77.8312 32.116Z"/><path fill="#D9D9D9" d="M120.513 18.7035H129.135V10.2354H120.513V18.7035ZM120.513 52.5194H129.135V22.0567H120.513V52.5194Z"/><path fill="#D9D9D9" d="M146.514 29.047H152.526V22.0565H146.514V12.5085H137.891V22.0565H132.502V29.047H137.891V45.8129C137.891 49.848 139.593 52.5192 144.698 52.5192H152.526V45.6992H146.514V29.047Z"/><path fill="#D9D9D9" d="M156.363 52.5191H165.552V35.0713H184.215V52.5191H193.404V11.0876H184.215V27.7966H165.552V11.0876H156.363V52.5191Z"/><path fill="#D9D9D9" d="M226.738 22.0566H218.116V38.1405C218.116 42.744 215.62 46.0403 211.536 46.0403C208.132 46.0403 206.204 43.9943 206.204 39.7318V22.0566H197.525V41.0958C197.525 48.3705 200.871 53.0876 207.678 53.0876C212.5 53.0876 215.79 50.7575 217.549 46.9496H218.059L219.194 52.5193H226.738V22.0566Z"/><path fill="#D9D9D9" d="M230.926 52.5194H238.47L239.548 47.0634H240.058C241.817 50.9849 245.731 53.0877 250.099 53.0877C257.927 53.0877 262.465 47.2339 262.465 37.3449C262.465 27.3422 257.813 21.4884 249.929 21.4884C245.05 21.4884 241.477 23.989 240.058 27.6264H239.548V10.2354H230.926V52.5194ZM239.548 38.652V36.0377C239.548 31.491 242.441 28.5357 246.922 28.5357C251.006 28.5357 253.673 30.6385 253.673 34.901V39.7887C253.673 43.5397 251.517 46.0972 246.979 46.0972C242.384 46.0972 239.548 43.085 239.548 38.652Z"/><path fill="#D9D9D9" fill-rule="evenodd" d="M31.4916 0C14.0774 0 0 14.2089 0 31.7858C0 45.8369 9.01993 57.7303 21.5332 61.9403C23.0973 62.2561 23.6708 61.2562 23.6708 60.4142C23.6708 59.6774 23.6187 57.1514 23.6187 54.5201C14.8594 56.4146 13.0346 50.731 13.0346 50.731C11.6269 47.0473 9.54136 46.1 9.54136 46.1C6.67369 44.1528 9.74989 44.1528 9.74989 44.1528C12.9303 44.3634 14.5988 47.4157 14.5988 47.4157C17.4142 52.2572 21.9503 50.889 23.7751 50.0469C24.0358 47.9945 24.87 46.5736 25.7564 45.7843C18.7698 45.0475 11.4183 42.311 11.4183 30.1018C11.4183 26.6285 12.6696 23.7868 14.6509 21.5765C14.3381 20.7871 13.2431 17.5243 14.9637 13.1564C14.9637 13.1564 17.6228 12.3144 23.6187 16.4192C26.1214 15.7351 28.8325 15.3667 31.4916 15.3667C34.1507 15.3667 36.8618 15.7351 39.3645 16.4192C45.3604 12.3144 48.0195 13.1564 48.0195 13.1564C49.7401 17.5243 48.6451 20.7871 48.3323 21.5765C50.3657 23.7868 51.5649 26.6285 51.5649 30.1018C51.5649 42.311 44.2134 44.9949 37.1747 45.7843C38.3217 46.7842 39.3124 48.6786 39.3124 51.6784C39.3124 55.941 39.2602 59.3616 39.2602 60.4142C39.2602 61.2562 39.8337 62.2561 41.3979 61.9403C53.9111 57.7303 62.9311 45.8369 62.9311 31.7858C62.9832 14.2089 48.8537 0 31.4916 0Z" clip-rule="evenodd"/></g><defs><clipPath id="clip0_21_461"><rect width="263" height="62" fill="#fff"/></clipPath></defs></svg>