<svg width="369" height="59" viewBox="0 0 369 59" fill="none" xmlns="http://www.w3.org/2000/svg">
<path fill-rule="evenodd" clip-rule="evenodd" d="M6.97666 50.893C7.13796 50.9736 7.25895 51.0543 7.37993 51.1349C7.50091 51.2559 7.58157 51.3769 7.62189 51.5382C7.66222 51.6995 7.70255 51.8608 7.70255 52.0221V57.9099C7.70255 57.9503 7.70255 58.0309 7.66222 58.0309C7.62189 58.0712 7.58156 58.0712 7.54124 58.0712H6.08946C6.04913 58.0712 6.0088 58.0712 5.96847 58.0309C5.92815 57.9906 5.92815 57.9503 5.92815 57.9099V52.5867H4.75865V57.9099C4.75865 57.9503 4.75865 58.0309 4.71833 58.0309C4.678 58.0712 4.63767 58.0712 4.59735 58.0712H3.26654C3.22622 58.0712 3.14556 58.0712 3.14556 58.0309C3.10524 57.9906 3.10524 57.9503 3.10524 57.9099V52.5867H1.93574V57.9099C1.93574 58.0309 1.85509 58.1116 1.73411 58.1116H0.282325C0.161343 58.1116 0.0806885 58.0309 0.0806885 57.9099V51.014C0.0806885 50.893 0.161343 50.8123 0.282325 50.8123H6.57338C6.69436 50.772 6.85567 50.8123 6.97666 50.893Z" fill="#D9D9D9"/>
<path fill-rule="evenodd" clip-rule="evenodd" d="M14.2759 50.7721C14.4372 50.7721 14.5985 50.8124 14.7598 50.8527C14.9211 50.9334 15.0421 51.0141 15.1631 51.0947C15.2841 51.2157 15.3647 51.3367 15.405 51.498C15.4454 51.6593 15.4857 51.8206 15.4857 51.9819V57.8697C15.4857 57.91 15.4857 57.9907 15.4454 57.9907C15.405 58.031 15.3647 58.031 15.3244 58.031H13.8726C13.8323 58.031 13.7516 58.031 13.7516 57.9907C13.7113 57.9504 13.7113 57.91 13.7113 57.8697V56.0146C13.7113 55.9743 13.7113 55.8937 13.671 55.8937C13.6306 55.8533 13.5903 55.8533 13.55 55.8533H11.4933C11.453 55.8533 11.3723 55.8533 11.3723 55.8937C11.332 55.934 11.332 55.9743 11.332 56.0146V57.8697C11.332 57.9907 11.2513 58.0713 11.1303 58.0713H9.67857C9.55758 58.0713 9.47693 57.9907 9.47693 57.8697V51.9819C9.47693 51.8206 9.51726 51.6593 9.55758 51.498C9.63824 51.3367 9.71889 51.2157 9.79955 51.0947C9.92053 50.9737 10.0415 50.8931 10.2028 50.8527C10.3641 50.7721 10.5254 50.7721 10.6867 50.7721H14.2759ZM13.6306 54.2402V52.4255H11.1707V54.2402H13.6306Z" fill="#D9D9D9"/>
<path fill-rule="evenodd" clip-rule="evenodd" d="M22.059 50.8527C22.0993 50.893 22.0993 50.9334 22.0993 50.9737V56.8615C22.0993 57.0228 22.059 57.1841 22.0187 57.3454C21.938 57.5067 21.8574 57.6277 21.7767 57.7487C21.6557 57.8697 21.5348 57.9503 21.3735 57.9906C21.2121 58.0713 21.0508 58.0713 20.8895 58.0713H17.744C17.5827 58.0713 17.4214 58.031 17.2601 57.9906C17.0988 57.91 16.9778 57.8293 16.8568 57.7487C16.7358 57.6277 16.6552 57.5067 16.6148 57.3454C16.5342 57.1841 16.5342 57.0228 16.5342 56.8615V54.6435C16.5342 54.5225 16.6148 54.4418 16.7358 54.4418H18.1876C18.3086 54.4418 18.3892 54.5225 18.3892 54.6435V56.1356C18.3892 56.1759 18.3892 56.2162 18.4296 56.2566C18.4699 56.2969 18.5102 56.2969 18.5505 56.2969H20.0427C20.083 56.2969 20.1636 56.2969 20.1636 56.2566C20.204 56.2162 20.204 56.1759 20.204 56.1356V51.014C20.204 50.9737 20.204 50.893 20.2443 50.893C20.2846 50.8527 20.3249 50.8527 20.3653 50.8527H21.8171C21.938 50.7721 22.0187 50.8124 22.059 50.8527Z" fill="#D9D9D9"/>
<path fill-rule="evenodd" clip-rule="evenodd" d="M28.6324 50.7721C28.7937 50.7721 28.955 50.8124 29.1163 50.8527C29.2776 50.9334 29.3986 51.0141 29.5196 51.0947C29.6406 51.2157 29.7212 51.3367 29.7616 51.498C29.8019 51.6593 29.8422 51.8206 29.8422 51.9819V56.8212C29.8422 56.9825 29.8019 57.1438 29.7616 57.3051C29.6809 57.4664 29.6003 57.5874 29.5196 57.7084C29.3986 57.8294 29.2776 57.91 29.1163 57.9504C28.955 58.031 28.7937 58.031 28.6324 58.031H24.9626C24.8013 58.031 24.64 57.9907 24.4787 57.9504C24.3174 57.8697 24.1964 57.789 24.0754 57.7084C23.9544 57.5874 23.8738 57.4664 23.8335 57.3051C23.7528 57.1438 23.7528 56.9825 23.7528 56.8212V51.9819C23.7528 51.8206 23.7931 51.6593 23.8335 51.498C23.8738 51.3367 23.9948 51.2157 24.0754 51.0947C24.1964 50.9737 24.3174 50.8931 24.4787 50.8527C24.64 50.7721 24.8013 50.7721 24.9626 50.7721H28.6324ZM27.9872 52.5465H25.5272V56.2969H27.9872V52.5465Z" fill="#D9D9D9"/>
<path fill-rule="evenodd" clip-rule="evenodd" d="M37.827 57.91C37.8674 57.9504 37.8674 57.9907 37.827 58.031C37.7867 58.0713 37.7867 58.0713 37.7061 58.0713H36.0526C36.0123 58.0713 35.9317 58.0713 35.8913 58.031L35.7703 57.91L34.6815 55.934C34.6815 55.8937 34.6412 55.8937 34.6008 55.8937H33.3507C33.3104 55.8937 33.3104 55.8937 33.3104 55.934V57.8697C33.3104 57.9907 33.2297 58.0713 33.1087 58.0713H31.657C31.536 58.0713 31.4553 57.9907 31.4553 57.8697V50.9737C31.4553 50.8527 31.536 50.7721 31.657 50.7721H36.3753C36.5366 50.7721 36.6979 50.8124 36.8592 50.8527C37.0205 50.9334 37.1415 51.0141 37.2624 51.0947C37.3834 51.2157 37.4641 51.3367 37.5044 51.498C37.5851 51.6593 37.5851 51.8206 37.5851 51.9819V54.7242C37.5851 55.0065 37.5044 55.2081 37.3431 55.4501C37.1818 55.6517 36.9802 55.813 36.7382 55.8937H36.6979C36.6575 55.8937 36.6575 55.934 36.6575 55.9743V56.0146L37.827 57.91ZM35.7703 52.4658H33.2701V54.2402H35.7703V52.4658Z" fill="#D9D9D9"/>
<path fill-rule="evenodd" clip-rule="evenodd" d="M47.6266 56.2969C47.6669 56.2969 47.7072 56.2969 47.7476 56.3372C47.7879 56.3776 47.7879 56.4179 47.7879 56.4582V57.8293C47.7879 57.8697 47.7879 57.9503 47.7476 57.9503C47.7072 57.9906 47.6669 57.9906 47.6266 57.9906H43.1502C43.0293 57.9906 42.9486 57.91 42.9486 57.789V50.893C42.9486 50.7721 43.0293 50.6914 43.1502 50.6914H44.602C44.723 50.6914 44.8037 50.7721 44.8037 50.893V56.0146C44.8037 56.0549 44.8037 56.0953 44.844 56.1356C44.8843 56.1759 44.9246 56.1759 44.965 56.1759H47.6266V56.2969Z" fill="#D9D9D9"/>
<path fill-rule="evenodd" clip-rule="evenodd" d="M54.3612 50.8527C54.4016 50.893 54.4015 50.9333 54.4015 50.9737V51.5786V51.9012V52.3045C54.4015 52.3448 54.4016 52.3851 54.3612 52.4254C54.3209 52.4658 54.2806 52.4658 54.2402 52.4658H53.5143H51.3367H50.7721C50.7318 52.4658 50.7318 52.4658 50.7318 52.5061V53.6353C50.7318 53.6756 50.7318 53.6756 50.7721 53.6756H53.7563C53.7966 53.6756 53.837 53.6756 53.8773 53.7159C53.9176 53.7562 53.9176 53.7966 53.9176 53.8369V54.8854C53.9176 54.9257 53.9176 55.0064 53.8773 55.0064C53.837 55.0467 53.7966 55.0467 53.7563 55.0467H50.7721C50.7318 55.0467 50.7318 55.0467 50.7318 55.087V55.6113V56.2162C50.7318 56.2565 50.7318 56.2565 50.7721 56.2565H51.2157H53.5547H54.2402C54.2806 56.2565 54.3612 56.2565 54.3612 56.2969C54.4016 56.3372 54.4015 56.3775 54.4015 56.4178V56.8211V57.3454V57.7083C54.4015 57.7486 54.4016 57.8293 54.3612 57.8293C54.3209 57.8696 54.2806 57.8696 54.2402 57.8696H53.6353H49.6833H49.0783C48.9574 57.8696 48.8767 57.789 48.8767 57.668V57.305V51.256V50.772C48.8767 50.7317 48.8767 50.651 48.917 50.651C48.9574 50.6107 48.9977 50.6107 49.038 50.6107H49.8042H53.8773H54.1999C54.2806 50.772 54.3209 50.8124 54.3612 50.8527Z" fill="#D9D9D9"/>
<path fill-rule="evenodd" clip-rule="evenodd" d="M60.9749 50.7721C61.1363 50.7721 61.2976 50.8124 61.4589 50.8527C61.6202 50.9334 61.7412 51.0141 61.8621 51.0947C61.9831 51.2157 62.0638 51.3367 62.1041 51.498C62.1444 51.6593 62.1848 51.8206 62.1848 51.9819V57.8697C62.1848 57.91 62.1848 57.9907 62.1444 57.9907C62.1041 58.031 62.0638 58.031 62.0235 58.031H60.5313C60.491 58.031 60.4104 58.031 60.4104 57.9907C60.37 57.9504 60.37 57.91 60.37 57.8697V56.0146C60.37 55.9743 60.37 55.8937 60.3297 55.8937C60.2894 55.8533 60.2491 55.8533 60.2087 55.8533H58.1117C58.0714 55.8533 57.9907 55.8533 57.9907 55.8937C57.9504 55.934 57.9504 55.9743 57.9504 56.0146V57.8697C57.9504 57.9907 57.8697 58.0713 57.7488 58.0713H56.297C56.176 58.0713 56.0953 57.9907 56.0953 57.8697V51.9819C56.0953 51.8206 56.1357 51.6593 56.176 51.498C56.2567 51.3367 56.3373 51.2157 56.418 51.0947C56.5389 50.9737 56.6599 50.8931 56.8212 50.8527C56.9825 50.7721 57.1438 50.7721 57.3052 50.7721H60.9749ZM60.3297 54.2402V52.4255H57.8697V54.2402H60.3297Z" fill="#D9D9D9"/>
<path fill-rule="evenodd" clip-rule="evenodd" d="M69.8872 54.1595C69.9276 54.1999 69.9276 54.2402 69.9276 54.2805V56.8615C69.9276 57.0228 69.8872 57.1841 69.8469 57.3454C69.7662 57.5067 69.6856 57.6277 69.6049 57.7487C69.484 57.8697 69.363 57.9503 69.2017 57.9906C69.0404 58.0713 68.879 58.0713 68.7177 58.0713H65.048C64.8866 58.0713 64.7253 58.031 64.564 57.9906C64.4027 57.91 64.2817 57.8293 64.1607 57.7487C64.0398 57.6277 63.9591 57.5067 63.9188 57.3454C63.8381 57.1841 63.8381 57.0228 63.8381 56.8615V52.0222C63.8381 51.8609 63.8785 51.6996 63.9188 51.5383C63.9591 51.377 64.0801 51.256 64.1607 51.135C64.2817 51.014 64.4027 50.9334 64.564 50.893C64.7253 50.8124 64.8866 50.8124 65.048 50.8124H69.363C69.4033 50.8124 69.484 50.8124 69.484 50.8527C69.5243 50.893 69.5243 50.9334 69.5243 50.9737V52.3448C69.5243 52.3851 69.5243 52.4658 69.484 52.4658C69.4436 52.5061 69.4033 52.5061 69.363 52.5061H65.8948C65.8545 52.5061 65.7738 52.5061 65.7738 52.5465C65.7335 52.5868 65.7335 52.6271 65.7335 52.6674V56.0549C65.7335 56.0953 65.7335 56.1356 65.7738 56.1759C65.8142 56.2162 65.8545 56.2162 65.8948 56.2162H67.9515C67.9918 56.2162 68.0322 56.2162 68.0725 56.1759C68.1128 56.1356 68.1128 56.0953 68.1128 56.0549V54.2402C68.1128 54.1999 68.1128 54.1192 68.1532 54.1192C68.1935 54.0789 68.2338 54.0789 68.2741 54.0789H69.7259C69.7662 54.0789 69.8469 54.1192 69.8872 54.1595Z" fill="#D9D9D9"/>
<path fill-rule="evenodd" clip-rule="evenodd" d="M77.5495 50.8527C77.5898 50.8931 77.5898 50.9334 77.5898 50.9737V56.8615C77.5898 57.0228 77.5495 57.1841 77.5091 57.3454C77.4285 57.5068 77.3478 57.6277 77.2672 57.7487C77.1462 57.8697 77.0252 57.9504 76.8639 57.9907C76.7026 58.0713 76.5413 58.0713 76.38 58.0713H72.7102C72.5489 58.0713 72.3876 58.031 72.2263 57.9907C72.0649 57.91 71.944 57.8294 71.823 57.7487C71.702 57.6277 71.6213 57.5068 71.581 57.3454C71.5004 57.1841 71.5004 57.0228 71.5004 56.8615V50.9737C71.5004 50.8527 71.581 50.7721 71.702 50.7721H73.1538C73.2748 50.7721 73.3554 50.8527 73.3554 50.9737V56.0953C73.3554 56.1356 73.3554 56.176 73.3957 56.2163C73.4361 56.2566 73.4764 56.2566 73.5167 56.2566H75.5734C75.6137 56.2566 75.6541 56.2566 75.6944 56.2163C75.7347 56.176 75.7347 56.1356 75.7347 56.0953V50.9737C75.7347 50.9334 75.7347 50.8527 75.7751 50.8527C75.8154 50.8124 75.8557 50.8124 75.896 50.8124H77.3478C77.4688 50.7721 77.5091 50.8124 77.5495 50.8527Z" fill="#D9D9D9"/>
<path fill-rule="evenodd" clip-rule="evenodd" d="M84.768 50.8527C84.8083 50.893 84.8083 50.9333 84.8083 50.9737V51.5786V51.9012V52.3045C84.8083 52.3448 84.8083 52.3851 84.768 52.4254C84.7276 52.4658 84.6873 52.4658 84.647 52.4658H83.9211H81.7434H81.1788C81.1385 52.4658 81.1385 52.4658 81.1385 52.5061V53.6353C81.1385 53.6756 81.1385 53.6756 81.1788 53.6756H84.1631C84.2034 53.6756 84.2437 53.6756 84.284 53.7159C84.3244 53.7562 84.3244 53.7966 84.3244 53.8369V54.8854C84.3244 54.9257 84.3244 55.0064 84.284 55.0064C84.2437 55.0467 84.2034 55.0467 84.1631 55.0467H81.1788C81.1385 55.0467 81.1385 55.0467 81.1385 55.087V55.6113V56.2162C81.1385 56.2565 81.1385 56.2565 81.1788 56.2565H81.6224H83.9614H84.647C84.6873 56.2565 84.768 56.2565 84.768 56.2969C84.8083 56.3372 84.8083 56.3775 84.8083 56.4178V56.8211V57.3454V57.7083C84.8083 57.7486 84.8083 57.8293 84.768 57.8293C84.7276 57.8696 84.6873 57.8696 84.647 57.8696H84.0421H80.09H79.4851C79.3641 57.8696 79.2834 57.789 79.2834 57.668V57.305V51.256V50.772C79.2834 50.7317 79.2834 50.651 79.3238 50.651C79.3641 50.6107 79.4044 50.6107 79.4448 50.6107H80.211H84.284H84.6067C84.6873 50.772 84.7276 50.8124 84.768 50.8527Z" fill="#D9D9D9"/>
<path fill-rule="evenodd" clip-rule="evenodd" d="M95.9386 50.772C95.979 50.772 96.0596 50.772 96.0596 50.8123C96.1 50.8527 96.1 50.893 96.1 50.9333V57.8293C96.1 57.8696 96.1 57.9503 96.0596 57.9503C96.0193 57.9906 95.979 57.9906 95.9386 57.9906H94.4869C94.4465 57.9906 94.3659 57.9906 94.3659 57.9503C94.3256 57.9099 94.3256 57.8696 94.3256 57.8293V55.4097C94.3256 55.3693 94.3256 55.329 94.2852 55.2887C94.2449 55.2483 94.2046 55.2483 94.1642 55.2483H92.1076C92.0672 55.2483 91.9866 55.2483 91.9866 55.2887C91.9462 55.329 91.9462 55.3693 91.9462 55.4097V57.8293C91.9462 57.9503 91.8656 58.0309 91.7446 58.0309H90.2928C90.1718 58.0309 90.0912 57.9503 90.0912 57.8293V50.9333C90.0912 50.8123 90.1718 50.7317 90.2928 50.7317H91.7446C91.8656 50.7317 91.9462 50.8123 91.9462 50.9333V53.2723C91.9462 53.3933 92.0269 53.4739 92.1479 53.4739H94.2046C94.2449 53.4739 94.2852 53.4739 94.3256 53.4336C94.3659 53.3933 94.3659 53.353 94.3659 53.3126V50.9737C94.3659 50.9333 94.3659 50.8527 94.4062 50.8527C94.4465 50.8123 94.4869 50.8123 94.5272 50.8123H95.9386V50.772Z" fill="#D9D9D9"/>
<path fill-rule="evenodd" clip-rule="evenodd" d="M102.673 50.7721C102.835 50.7721 102.996 50.8124 103.157 50.8527C103.319 50.9334 103.44 51.0141 103.561 51.0947C103.682 51.2157 103.762 51.3367 103.803 51.498C103.843 51.6593 103.883 51.8206 103.883 51.9819V57.8697C103.883 57.91 103.883 57.9907 103.843 57.9907C103.802 58.031 103.762 58.031 103.722 58.031H102.27C102.23 58.031 102.149 58.031 102.149 57.9907C102.109 57.9504 102.109 57.91 102.109 57.8697V56.0146C102.109 55.9743 102.109 55.8937 102.068 55.8937C102.028 55.8533 101.988 55.8533 101.947 55.8533H99.8908C99.8504 55.8533 99.7698 55.8533 99.7698 55.8937C99.7294 55.934 99.7294 55.9743 99.7294 56.0146V57.8697C99.7294 57.9907 99.6488 58.0713 99.5278 58.0713H98.076C97.955 58.0713 97.8744 57.9907 97.8744 57.8697V51.9819C97.8744 51.8206 97.9147 51.6593 97.955 51.498C98.0357 51.3367 98.1164 51.2157 98.197 51.0947C98.318 50.9737 98.439 50.8931 98.6003 50.8527C98.7616 50.7721 98.9229 50.7721 99.0842 50.7721H102.673ZM102.068 54.2402V52.4255H99.6085V54.2402H102.068Z" fill="#D9D9D9"/>
<path fill-rule="evenodd" clip-rule="evenodd" d="M107.392 52.5867C107.351 52.627 107.351 52.6674 107.351 52.7077V56.0952C107.351 56.1355 107.351 56.1758 107.392 56.2162C107.432 56.2565 107.472 56.2565 107.513 56.2565H110.86C110.9 56.2565 110.981 56.2565 110.981 56.2968C111.021 56.3371 111.021 56.3775 111.021 56.4178V57.7889C111.021 57.8293 111.021 57.9099 110.981 57.9099C110.94 57.9502 110.9 57.9502 110.86 57.9502H108.682H106.908H106.706C106.545 57.9502 106.383 57.9099 106.222 57.8696C106.061 57.7889 105.94 57.7083 105.819 57.6276C105.698 57.5066 105.617 57.3857 105.577 57.2243C105.496 57.063 105.496 56.9017 105.496 56.7404V56.5388V55.7726V53.3529V52.6674V51.8608C105.496 51.6995 105.537 51.5382 105.577 51.3769C105.658 51.2156 105.738 51.0946 105.819 50.9736C105.94 50.8526 106.061 50.772 106.222 50.7317C106.383 50.651 106.545 50.651 106.706 50.651H106.908H110.86C110.9 50.651 110.981 50.651 110.981 50.6913C111.021 50.7317 111.021 50.772 111.021 50.8123V52.1834C111.021 52.2238 111.021 52.3044 110.981 52.3044C110.94 52.3447 110.9 52.3447 110.86 52.3447H107.513C107.472 52.5464 107.432 52.5867 107.392 52.5867Z" fill="#D9D9D9"/>
<path fill-rule="evenodd" clip-rule="evenodd" d="M116.869 53.8369C116.828 53.8773 116.828 53.8773 116.869 53.9176L119.288 57.91C119.328 57.9503 119.328 57.9906 119.288 58.031C119.248 58.0713 119.248 58.0713 119.167 58.0713H117.433C117.393 58.0713 117.312 58.0713 117.272 58.031C117.231 57.9906 117.191 57.9503 117.151 57.91L115.578 55.0871C115.538 55.0467 115.538 55.0467 115.538 55.0871L114.691 56.0146C114.651 56.0549 114.61 56.0953 114.61 56.1759C114.57 56.2566 114.57 56.2969 114.57 56.3775V57.91C114.57 58.031 114.489 58.1116 114.368 58.1116H112.957C112.836 58.1116 112.755 58.031 112.755 57.91V51.014C112.755 50.893 112.836 50.8124 112.957 50.8124H114.409C114.53 50.8124 114.61 50.893 114.61 51.014V54.1192L117.312 50.9737C117.352 50.9334 117.393 50.893 117.473 50.8527C117.554 50.8124 117.594 50.8124 117.635 50.8124H119.369C119.409 50.8124 119.449 50.8124 119.449 50.8527C119.449 50.893 119.449 50.9334 119.409 50.9737L116.869 53.8369Z" fill="#D9D9D9"/>
<path fill-rule="evenodd" clip-rule="evenodd" d="M122.474 57.8697C122.474 57.9907 122.393 58.0713 122.272 58.0713H120.821C120.7 58.0713 120.619 57.9907 120.619 57.8697V50.9737C120.619 50.8527 120.7 50.7721 120.821 50.7721H122.272C122.393 50.7721 122.474 50.8527 122.474 50.9737V57.8697Z" fill="#D9D9D9"/>
<path fill-rule="evenodd" clip-rule="evenodd" d="M129.491 50.893C129.652 50.9736 129.773 51.0543 129.894 51.1349C130.015 51.2559 130.096 51.3769 130.136 51.5382C130.217 51.6995 130.217 51.8608 130.217 52.0221V57.9099C130.217 57.9503 130.217 58.0309 130.177 58.0309C130.136 58.0712 130.096 58.0712 130.056 58.0712H128.604C128.563 58.0712 128.523 58.0712 128.483 58.0309C128.442 57.9906 128.442 57.9503 128.442 57.9099V52.7884C128.442 52.748 128.443 52.7077 128.402 52.6674C128.362 52.6271 128.322 52.6271 128.281 52.6271H126.224C126.184 52.6271 126.104 52.6271 126.104 52.6674C126.104 52.7077 126.063 52.748 126.063 52.7884V57.9099C126.063 58.0309 125.983 58.1116 125.862 58.1116H124.41C124.289 58.1116 124.208 58.0309 124.208 57.9099V51.014C124.208 50.893 124.289 50.8123 124.41 50.8123H129.128C129.209 50.772 129.37 50.8123 129.491 50.893Z" fill="#D9D9D9"/>
<path fill-rule="evenodd" clip-rule="evenodd" d="M137.919 54.1595C137.96 54.1999 137.96 54.2402 137.96 54.2805V56.8615C137.96 57.0228 137.919 57.1841 137.879 57.3454C137.798 57.5067 137.718 57.6277 137.637 57.7487C137.516 57.8697 137.395 57.9503 137.234 57.9906C137.072 58.0713 136.911 58.0713 136.75 58.0713H133.08C132.919 58.0713 132.757 58.031 132.596 57.9906C132.435 57.91 132.314 57.8293 132.193 57.7487C132.072 57.6277 131.991 57.5067 131.951 57.3454C131.87 57.1841 131.87 57.0228 131.87 56.8615V52.0222C131.87 51.8609 131.911 51.6996 131.951 51.5383C131.991 51.377 132.112 51.256 132.193 51.135C132.314 51.014 132.435 50.9334 132.596 50.893C132.757 50.8124 132.919 50.8124 133.08 50.8124H137.395C137.435 50.8124 137.516 50.8124 137.516 50.8527C137.556 50.893 137.556 50.9334 137.556 50.9737V52.3448C137.556 52.3851 137.556 52.4658 137.516 52.4658C137.476 52.5061 137.435 52.5061 137.395 52.5061H133.927C133.887 52.5061 133.806 52.5061 133.806 52.5465C133.766 52.5868 133.766 52.6271 133.766 52.6674V56.0549C133.766 56.0953 133.766 56.1356 133.806 56.1759C133.846 56.2162 133.887 56.2162 133.927 56.2162H135.984C136.024 56.2162 136.064 56.2162 136.105 56.1759C136.145 56.1356 136.145 56.0953 136.145 56.0549V54.2402C136.145 54.1999 136.145 54.1192 136.185 54.1192C136.226 54.0789 136.266 54.0789 136.306 54.0789H137.758C137.839 54.0789 137.879 54.1192 137.919 54.1595Z" fill="#D9D9D9"/>
<path fill-rule="evenodd" clip-rule="evenodd" d="M43.9567 0.604909C44.8843 1.00818 45.6908 1.57276 46.3764 2.25833C47.062 2.94389 47.5862 3.75044 48.0298 4.67797C48.4331 5.60549 48.6347 6.61368 48.6347 7.66219V45.8925C48.6347 46.2554 48.5137 46.5377 48.2718 46.7797C48.0298 47.0216 47.7475 47.1426 47.3846 47.1426H38.2303C37.8673 47.1426 37.585 47.0216 37.3834 46.7797C37.1818 46.5377 37.0608 46.2554 37.0608 45.8925V11.1303H29.6809V45.8925C29.6809 46.2554 29.5599 46.5377 29.3583 46.7797C29.1566 47.0216 28.834 47.1426 28.5114 47.1426H20.204C19.841 47.1426 19.5587 47.0216 19.3168 46.7797C19.0748 46.5377 18.9538 46.2554 18.9538 45.8925V11.1303H11.5739V45.8925C11.5739 46.7393 11.1707 47.1426 10.3238 47.1426H1.25015C0.403273 47.1426 0 46.7393 0 45.8925V1.25015C0 0.403273 0.403273 0 1.25015 0H40.9322C42.021 0 42.9889 0.201636 43.9567 0.604909Z" fill="#D9D9D9"/>
<path fill-rule="evenodd" clip-rule="evenodd" d="M88.5184 35.6897C88.8813 35.6897 89.2039 35.8106 89.4056 36.0526C89.6475 36.2946 89.7685 36.6172 89.7685 36.9801V45.8925C89.7685 46.2554 89.6475 46.5377 89.4056 46.82C89.1636 47.062 88.8813 47.1829 88.5184 47.1829H57.1841C56.2969 47.1829 55.8533 46.7393 55.8533 45.8925V1.29047C55.8533 0.4436 56.2969 0 57.1841 0H66.782C67.6692 0 68.1128 0.4436 68.1128 1.29047V34.5202C68.1128 34.8831 68.2337 35.1654 68.516 35.4074C68.758 35.6493 69.0806 35.73 69.4436 35.73H88.5184V35.6897Z" fill="#D9D9D9"/>
<path fill-rule="evenodd" clip-rule="evenodd" d="M136.669 0C137.032 0 137.355 0.120982 137.597 0.362946C137.839 0.604909 138 0.927528 138 1.29047V46.0134C138 46.3764 137.879 46.6587 137.597 46.941C137.355 47.1829 137.032 47.3039 136.669 47.3039H126.91C126.547 47.3039 126.224 47.1829 125.982 46.941C125.74 46.699 125.579 46.3764 125.579 46.0134V30.4068C125.579 30.0438 125.458 29.7615 125.216 29.5196C124.974 29.2776 124.692 29.197 124.289 29.197H110.618C110.255 29.197 109.932 29.3179 109.69 29.5196C109.448 29.7615 109.287 30.0438 109.287 30.4068V46.0134C109.287 46.8603 108.843 47.3039 107.956 47.3039H98.2776C97.3904 47.3039 96.9468 46.8603 96.9468 46.0134V1.29047C96.9468 0.4436 97.3904 0 98.2776 0H107.956C108.843 0 109.287 0.4436 109.287 1.29047V16.4132C109.287 17.2601 109.731 17.7037 110.618 17.7037H124.289C124.652 17.7037 124.974 17.5827 125.216 17.3407C125.458 17.0988 125.579 16.7762 125.579 16.4132V1.29047C125.579 0.927528 125.7 0.645237 125.982 0.362946C126.224 0.120982 126.547 0 126.91 0H136.669Z" fill="#D9D9D9"/>
<line x1="169" y1="1.55579" x2="169" y2="56.5558" stroke="#D9D9D9" stroke-width="2"/>
<g clip-path="url(#clip0_107_15)">
<path d="M270.769 29.7997C270.769 37.8503 264.489 43.7827 256.781 43.7827C249.074 43.7827 242.793 37.8503 242.793 29.7997C242.793 21.6923 249.074 15.8167 256.781 15.8167C264.489 15.8167 270.769 21.6923 270.769 29.7997ZM264.646 29.7997C264.646 24.7688 261.006 21.3267 256.781 21.3267C252.557 21.3267 248.917 24.7688 248.917 29.7997C248.917 34.7801 252.557 38.2727 256.781 38.2727C261.006 38.2727 264.646 34.7738 264.646 29.7997Z" fill="#D9D9D9"/>
<path d="M300.946 29.7997C300.946 37.8503 294.665 43.7827 286.958 43.7827C279.25 43.7827 272.97 37.8503 272.97 29.7997C272.97 21.6986 279.25 15.8167 286.958 15.8167C294.665 15.8167 300.946 21.6923 300.946 29.7997ZM294.823 29.7997C294.823 24.7688 291.182 21.3267 286.958 21.3267C282.733 21.3267 279.093 24.7688 279.093 29.7997C279.093 34.7801 282.733 38.2727 286.958 38.2727C291.182 38.2727 294.823 34.7738 294.823 29.7997Z" fill="#D9D9D9"/>
<path d="M329.865 16.6614V41.7654C329.865 52.0919 323.792 56.3095 316.612 56.3095C309.854 56.3095 305.787 51.7767 304.253 48.0697L309.584 45.8443C310.533 48.1201 312.859 50.8058 316.606 50.8058C321.202 50.8058 324.05 47.9625 324.05 42.6101V40.599H323.836C322.465 42.2949 319.825 43.7764 316.493 43.7764C309.521 43.7764 303.134 37.6864 303.134 29.8501C303.134 21.9571 309.521 15.8167 316.493 15.8167C319.819 15.8167 322.459 17.2982 323.836 18.9436H324.05V16.6677H329.865V16.6614ZM324.483 29.8501C324.483 24.9264 321.208 21.3267 317.04 21.3267C312.815 21.3267 309.276 24.9264 309.276 29.8501C309.276 34.7234 312.815 38.2727 317.04 38.2727C321.208 38.2727 324.483 34.7234 324.483 29.8501Z" fill="#D9D9D9"/>
<path d="M339.452 1.94714V42.9254H333.48V1.94714H339.452Z" fill="#D9D9D9"/>
<path d="M362.726 34.4018L367.479 37.5792C365.945 39.8551 362.248 43.7764 355.861 43.7764C347.939 43.7764 342.023 37.636 342.023 29.7933C342.023 21.4779 347.99 15.8103 355.175 15.8103C362.411 15.8103 365.951 21.5851 367.108 24.7057L367.743 26.2944L349.102 34.0362C350.529 36.8416 352.749 38.2727 355.861 38.2727C358.979 38.2727 361.141 36.7344 362.726 34.4018ZM348.096 29.371L360.557 24.1825C359.872 22.4362 357.81 21.2194 355.383 21.2194C352.271 21.2194 347.939 23.9744 348.096 29.371Z" fill="#D9D9D9"/>
<path d="M220.186 26.1621V20.2297H240.121C240.316 21.2636 240.417 22.4866 240.417 23.8105C240.417 28.2614 239.203 33.7651 235.293 37.6864C231.49 41.6581 226.63 43.7764 220.192 43.7764C208.26 43.7764 198.226 34.0299 198.226 22.0642C198.226 10.0986 208.26 0.352051 220.192 0.352051C226.793 0.352051 231.496 2.94944 235.029 6.33488L230.855 10.521C228.321 8.13792 224.888 6.28444 220.186 6.28444C211.473 6.28444 204.658 13.3264 204.658 22.0642C204.658 30.8021 211.473 37.844 220.186 37.844C225.838 37.844 229.057 35.5681 231.119 33.5003C232.791 31.8234 233.891 29.4277 234.325 26.1557L220.186 26.1621Z" fill="#D9D9D9"/>
</g>
<defs>
<clipPath id="clip0_107_15">
<rect width="171" height="58" fill="white" transform="translate(198 0.0557861)"/>
</clipPath>
</defs>
</svg>
