<svg width="183" height="183" viewBox="0 0 183 183" fill="none" xmlns="http://www.w3.org/2000/svg">
<path fill-rule="evenodd" clip-rule="evenodd" d="M183 104.612C183 147.905 147.905 183 104.612 183H0V78.3878C0 35.0954 35.0954 0 78.3878 0H183V104.612ZM15.6776 167.607H78.4864C78.4864 132.919 50.3659 104.799 15.6776 104.799V167.607ZM104.514 104.799V167.607C139.202 167.607 167.322 139.487 167.322 104.799H104.514ZM69.3059 104.799C64.2281 104.799 60.0959 108.915 60.0959 113.993C60.0959 119.071 64.2281 123.187 69.3059 123.187C74.3836 123.187 78.5156 119.071 78.5156 113.993C78.5156 108.915 74.3836 104.799 69.3059 104.799ZM82.2903 82.5909V100.979H100.71V82.5909H82.2903ZM78.4864 15.9626C43.798 15.9626 15.6776 44.0831 15.6776 78.7714H78.4864V15.9626ZM104.514 15.9626C104.514 50.651 132.634 78.7714 167.322 78.7714V15.9626H104.514ZM113.723 60.3806C108.646 60.3806 104.513 64.497 104.513 69.5748C104.513 74.6525 108.646 78.7689 113.723 78.7689C118.801 78.7689 122.933 74.6525 122.933 69.5748C122.933 64.497 118.801 60.3806 113.723 60.3806Z" fill="white"/>
</svg>
