<svg width="811" height="183" viewBox="0 0 811 183" fill="none" xmlns="http://www.w3.org/2000/svg">
<path d="M183 104.612C183 147.905 147.905 183 104.612 183H0V78.3877C8.34805e-05 35.0954 35.0954 8.34906e-05 78.3877 0H183V104.612ZM15.6777 167.607H78.4863C78.4863 132.919 50.366 104.799 15.6777 104.799V167.607ZM104.514 167.607C139.202 167.607 167.322 139.487 167.322 104.799H104.514V167.607ZM298.204 21C312.36 21.0001 324.639 23.7443 335.039 29.2334C345.439 34.7225 353.456 42.5233 359.09 52.6348C364.723 62.7464 367.541 74.7361 367.541 88.6035C367.541 102.326 364.723 114.316 359.09 124.572C353.456 134.684 345.367 142.485 334.822 147.974C324.422 153.463 312.143 156.207 297.987 156.207C283.831 156.207 271.48 153.463 260.936 147.974C250.535 142.34 242.445 134.467 236.667 124.355C230.889 114.244 228 102.254 228 88.3867C228 74.6638 230.817 62.7464 236.45 52.6348C242.228 42.5232 250.391 34.7226 260.936 29.2334C271.48 23.7444 283.904 21 298.204 21ZM441.028 21C458.507 21 472.375 24.8284 482.631 32.4844C492.887 40.1403 498.52 50.83 499.531 64.5527H464.863C463.274 58.4858 460.457 54.0796 456.412 51.335C452.367 48.5905 446.517 47.2178 438.861 47.2178C432.217 47.2178 427.161 48.2297 423.694 50.252C420.227 52.1298 418.494 55.0187 418.494 58.9189C418.494 61.6634 419.577 63.9747 421.744 65.8525C423.911 67.7303 427.233 69.1021 431.711 69.9688L461.396 75.6025C474.975 78.3471 484.942 82.7534 491.298 88.8203C497.654 94.8873 500.831 103.121 500.831 113.521C500.831 126.955 495.848 137.428 485.881 144.939C476.058 152.451 461.902 156.207 443.412 156.207C424.344 156.207 409.249 152.235 398.126 144.29C387.148 136.201 381.225 124.933 380.358 110.488H415.027C416.183 116.7 419.144 121.322 423.911 124.355C428.822 127.389 435.828 128.905 444.929 128.905C459.807 128.905 467.246 124.788 467.246 116.555C467.246 113.232 466.09 110.633 463.779 108.755C461.613 106.733 457.929 105.215 452.729 104.204L423.694 98.5703C397.693 93.5145 384.692 81.3087 384.692 61.9521C384.692 49.5294 389.676 39.6346 399.643 32.2676C409.61 24.7561 423.405 21 441.028 21ZM746.054 21C763.243 21 777.4 25.3339 788.522 34.001C799.645 42.6681 806.651 54.5856 809.54 69.7529H773.354C771.477 64.1193 768.227 59.7854 763.604 56.752C758.982 53.7185 753.132 52.2012 746.054 52.2012C736.375 52.2012 728.575 55.3795 722.652 61.7354C716.874 68.0912 713.985 77.0474 713.985 88.6035C713.985 100.16 716.947 109.116 722.869 115.472C728.792 121.827 736.52 125.006 746.054 125.006C761.365 125.006 770.682 118.505 774.005 105.505H810.19C807.59 121.394 800.728 133.817 789.605 142.773C778.483 151.729 763.965 156.207 746.054 156.207C732.475 156.207 720.558 153.463 710.302 147.974C700.19 142.34 692.245 134.467 686.467 124.355C680.833 114.244 678.017 102.326 678.017 88.6035C678.017 74.8806 680.833 62.9632 686.467 52.8516C692.1 42.7399 700.046 34.9394 710.302 29.4502C720.558 23.8167 732.475 21 746.054 21ZM553.542 95.7539C553.542 105.143 555.925 112.221 560.692 116.988C565.604 121.611 572.899 123.922 582.577 123.922C592.544 123.922 600.2 121.394 605.545 116.338C611.034 111.282 613.778 104.06 613.778 94.6709V23.6006H649.747V118.071H667.515V153.607H631.112V132.372H622.012C616.811 140.028 610.456 145.879 602.944 149.924C595.577 153.968 585.827 155.99 573.693 155.99C555.637 155.99 541.769 151.223 532.091 141.689C522.413 132.156 517.573 119.155 517.573 102.688V23.6006H553.542V95.7539ZM297.987 52.2012C287.009 52.2012 278.558 55.4518 272.636 61.9521C266.858 68.308 263.969 77.1195 263.969 88.3867C263.969 99.654 266.858 108.61 272.636 115.255C278.558 121.755 287.009 125.006 297.987 125.006C308.821 125.006 317.127 121.755 322.905 115.255C328.683 108.61 331.572 99.6539 331.572 88.3867C331.572 77.1196 328.683 68.308 322.905 61.9521C317.127 55.4519 308.821 52.2012 297.987 52.2012ZM69.3057 104.799C64.228 104.799 60.0957 108.915 60.0957 113.993C60.0959 119.071 64.2281 123.186 69.3057 123.187C74.3833 123.186 78.5154 119.071 78.5156 113.993C78.5156 108.915 74.3834 104.799 69.3057 104.799ZM82.29 100.979H100.71V82.5908H82.29V100.979ZM78.4863 15.9629C43.798 15.9629 15.6777 44.0832 15.6777 78.7715H78.4863V15.9629ZM104.514 15.9629C104.514 50.6511 132.634 78.7714 167.322 78.7715V15.9629H104.514ZM113.724 60.3809C108.646 60.3809 104.514 64.4974 104.514 69.5752C104.514 74.6528 108.646 78.7686 113.724 78.7686C118.801 78.7684 122.933 74.6527 122.934 69.5752C122.934 64.4975 118.801 60.381 113.724 60.3809Z" fill="#D9D9D9"/>
</svg>
