<svg xmlns="http://www.w3.org/2000/svg" width="182" height="33" fill="none" viewBox="0 0 182 33"><path fill="#D9D9D9" fill-rule="evenodd" d="M146.81 25.5661C141.714 25.5661 137.593 21.5019 137.593 16.465C137.593 11.4398 141.714 7.36398 146.81 7.36398C151.918 7.36398 156.039 11.4398 156.039 16.465C156.039 21.5019 151.918 25.5661 146.81 25.5661ZM153.127 16.465C153.127 13.0261 150.297 10.2471 146.81 10.2471C143.323 10.2471 140.505 13.0261 140.505 16.465C140.505 19.9156 143.323 22.6945 146.81 22.6945C150.297 22.6945 153.127 19.9156 153.127 16.465ZM53.9664 10.1545H43.5866V7.34082H59.8139L48.6004 22.6713H58.8746V25.5082H42.7764L53.9664 10.1545ZM63.7005 7.34082H77.4973V10.1892H66.9413V14.9135H76.1704V17.7619H66.9413V22.6366H77.4973V25.5198H63.7005V7.34082ZM89.7559 7.34082C92.0573 7.34082 93.8773 8.02398 95.0632 9.15871C96.0378 10.1545 96.5779 11.4977 96.5779 13.084V13.1419C96.5779 16.1408 94.7579 17.9356 92.1864 18.6535L97.1533 25.5429H93.3371L88.8165 19.1977H84.7538V25.5429H81.5013V7.34082H89.7559ZM89.521 16.3492C91.8224 16.3492 93.3019 15.1566 93.3019 13.3271V13.2692C93.3019 11.324 91.8811 10.2356 89.4858 10.2356H84.789V16.3492H89.521ZM121.518 7.34082H135.232V10.2356H124.759V15.2145H134.046V18.1092H124.759V25.5082H121.518V7.34082ZM163.777 16.2682L157.342 7.34082H161.135L165.679 13.6861L170.329 7.34082H174.028L167.558 16.2682L174.298 25.5198H170.47L165.656 18.8735L160.771 25.5198H157.072L163.777 16.2682Z" clip-rule="evenodd"/><path fill="#D9D9D9" d="M102.131 22.7872C100.464 21.143 99.4658 18.8967 99.4658 16.4072C99.4658 11.3819 103.587 7.30615 108.683 7.30615C110.139 7.30615 111.501 7.6651 112.746 8.26721L111.02 10.664C110.292 10.363 109.505 10.2125 108.683 10.2125C105.196 10.2125 102.378 12.9914 102.378 16.4419C102.378 17.9704 102.953 19.3714 103.857 20.4483L102.131 22.7872ZM117.877 16.4998C117.877 21.5367 113.756 25.6009 108.66 25.6009C107.204 25.6009 105.806 25.2419 104.597 24.6514L106.323 22.2546C107.051 22.5556 107.838 22.7062 108.66 22.7062C112.147 22.7062 114.965 19.9156 114.965 16.4767C114.965 14.9483 114.39 13.5356 113.474 12.4588L115.235 10.0619C116.879 11.7177 117.912 13.964 117.877 16.4998Z"/><path fill="#D9D9D9" d="M18.893 12.9916L22.897 10.3979V16.9516L24.3883 18.4453L17.9537 24.6169H16.6855V12.9916H18.893Z"/><path fill="#D9D9D9" d="M16.6851 12.9916V24.6169H15.4404L9.00586 18.4453L10.4971 16.9516V10.3979L14.4659 12.9916H16.6851Z"/><path fill="#D9D9D9" d="M0.0587904 16.4653C0.0587904 7.36421 7.52666 0 16.7441 0C19.7148 0 22.5329 0.787369 24.9634 2.16526L22.8147 5.09474C20.9947 4.13368 18.9281 3.60105 16.7089 3.60105C9.49931 3.60105 3.67531 9.37895 3.67531 16.4653C3.67531 20.1474 5.24873 23.4705 7.73802 25.8095L5.5775 28.7505C2.14885 25.7516 8.07715e-05 21.3516 0.0587904 16.4653Z"/><path fill="#D9D9D9" d="M33.3353 16.4651C33.3353 25.5661 25.8792 32.9304 16.65 32.9304C13.6793 32.9304 10.8612 32.1546 8.43066 30.7767L10.5912 27.8472C12.4112 28.8082 14.466 29.3409 16.6852 29.3409C23.9065 29.3409 29.7305 23.563 29.7305 16.4651C29.7305 12.783 28.1454 9.45983 25.6678 7.13246L27.8166 4.19141C31.2452 7.21351 33.394 11.5904 33.3353 16.4651Z"/></svg>